<?xml version="1.0" encoding="UTF-8"?>
<svg id="_Р РµР¶РёРј_РёР·РѕР»СЏС†РёРё" data-name="Р РµР¶РёРј РёР·РѕР»СЏС†РёРё" xmlns="http://www.w3.org/2000/svg" viewBox="0 0 80.23 58.37">
  <defs>
    <style>
      .cls-1 {
        fill: #163e6c;
      }
    </style>
  </defs>
  <path class="cls-1" d="m66.67,31.24c-2.77,0-5.35.84-7.49,2.27H21.42l-4.06-13.24h5.95l2.36,7.84h1.69l3.44,3.37-1.03-3.37-2.4-7.84h5.95l2.36,7.84h1.69l3.44,3.37-1.03-3.37h0l-2.4-7.84h5.95l2.36,7.84h1.26l3.44,3.37-1.03-3.37-2.4-7.84h5.95l2.36,7.84h6.29V10.68h-15.93v-5.35h3.68l-1.91-5.33h-27.74l1.91,5.33h6.87l-5.66,3.33v2.01h-12.36v12.89h-5.2v-12.89H0v7.99l2.88,4.9.99,1.69-2.62-1.69H0v4.94h2.6v12.89h5.21v-7.99l-2.88-4.89h0l-.99-1.69,2.62,1.69h3.86v12.89h11.01l4.44,9.47h28.68c2.23,4.44,6.82,7.5,12.12,7.5,7.48,0,13.57-6.09,13.57-13.57s-6.09-13.57-13.57-13.57m0,24.59c-6.09,0-11.02-4.93-11.02-11.02s4.93-11.02,11.02-11.02,11.02,4.93,11.02,11.02-4.93,11.02-11.02,11.02"/>
  <polygon class="cls-1" points="62.82 41.59 62.82 42.98 60.31 42.98 60.31 47.95 58.58 47.95 58.58 41.59 62.82 41.59"/>
  <path class="cls-1" d="m67.63,47.95l-.31-1.19h-2.06l-.32,1.19h-1.89l2.07-6.38h2.29l2.1,6.38h-1.88Zm-.67-2.6l-.27-1.04c-.06-.23-.14-.53-.23-.9-.09-.37-.15-.63-.18-.79-.03.15-.08.39-.15.73-.08.34-.25,1.01-.51,2h1.35Z"/>
  <path class="cls-1" d="m74.78,43.08c0,.84-.5,1.34-1.5,1.51v.03c.57.05,1.01.2,1.3.46.29.26.44.61.44,1.04,0,.38-.11.72-.32,1.01-.21.29-.52.51-.92.66-.4.15-.88.23-1.43.23-1.01,0-1.82-.11-2.42-.34v-1.48c.25.12.56.23.94.3.38.08.73.12,1.04.12.49,0,.84-.05,1.04-.15.21-.1.31-.27.31-.51,0-.43-.49-.64-1.46-.64h-.75v-1.39h.67c.34,0,.6-.02.79-.05.19-.03.33-.09.42-.16.09-.08.13-.19.13-.34,0-.32-.3-.48-.92-.48-.58,0-1.08.15-1.52.44l-.72-1.18c.38-.24.76-.42,1.16-.52.39-.1.86-.15,1.42-.15.7,0,1.26.14,1.68.43.42.29.63.67.63,1.14"/>
</svg>